<?xml version="1.0" encoding="UTF-8" standalone="no"?>
<svg
   width="158.47949"
   zoomAndPan="magnify"
   viewBox="0 0 118.85962 82.500006"
   height="110"
   preserveAspectRatio="xMidYMid meet"
   version="1.2"
   id="svg53"
   xmlns="http://www.w3.org/2000/svg"
   xmlns:svg="http://www.w3.org/2000/svg">
  <defs
     id="defs4">
    <g
       id="g2" />
  </defs>
  <g
     id="g1235"
     transform="matrix(0.35296918,0,0,0.35296918,-6.7312324,-22.107452)">
    <path
       style="fill:#000000;fill-opacity:1;fill-rule:nonzero;stroke:none"
       d="m 122.59375,62.632812 -41.5625,191.285158 191.28906,41.5625 41.5586,-191.28516 z M 267.55078,288.0625 88.320312,249.125 127.26172,69.894531 306.49219,108.83594 Z m 0,0"
       id="path12" />
    <path
       style="fill:#ff0000;fill-opacity:1;fill-rule:nonzero;stroke:none"
       d="M 19.070312,105.44141 H 355.8125 v 147 H 19.070312 Z m 0,0"
       id="path14" />
    <g
       style="fill:#ffffff;fill-opacity:1"
       id="g20">
      <g
         transform="translate(39.917986,222.94802)"
         id="g18">
        <path
           style="stroke:none"
           d="M -6.484375,0 14.9375,-92.953125 H 52.15625 L 48.046875,-74.875 h -18.5 l -3.46875,14.828125 h 17.53125 L 39.5,-42.203125 H 21.96875 L 12.234375,0 Z m 0,0"
           id="path16" />
      </g>
    </g>
    <g
       style="fill:#ffffff;fill-opacity:1"
       id="g26">
      <g
         transform="translate(83.089481,222.94802)"
         id="g24">
        <path
           style="stroke:none"
           d="M 16.765625,0.859375 C 8.617188,0.859375 3.28125,-1.375 0.75,-5.84375 -1.769531,-10.3125 -1.984375,-16.984375 0.109375,-25.859375 l 7.359375,-31.8125 c 1.65625,-7.28125 5.007812,-12.832031 10.0625,-16.65625 5.050781,-3.832031 11.328125,-5.75 18.828125,-5.75 15.21875,0 21.132813,7.46875 17.75,22.40625 l -1.40625,5.734375 c -1.304687,5.773438 -2.460937,10.460938 -3.46875,14.0625 H 21.75 L 18.28125,-22.5 c -0.648438,2.742188 -0.859375,4.886719 -0.640625,6.4375 0.21875,1.554688 1.265625,2.328125 3.140625,2.328125 1.4375,0 2.550781,-0.429687 3.34375,-1.296875 0.800781,-0.875 1.398438,-1.867188 1.796875,-2.984375 0.394531,-1.113281 0.804687,-2.753906 1.234375,-4.921875 L 29,-30.625 H 47.828125 L 46.75,-26.078125 C 44.65625,-16.847656 41.316406,-10.050781 36.734375,-5.6875 32.148438,-1.320312 25.492188,0.859375 16.765625,0.859375 Z M 32.78125,-47.28125 35.171875,-57.453125 C 36.460938,-63.148438 35.703125,-66 32.890625,-66 c -3.167969,0 -5.402344,2.851562 -6.703125,8.546875 l -2.375,10.171875 z m 0,0"
           id="path22" />
      </g>
    </g>
    <g
       style="fill:#ffffff;fill-opacity:1"
       id="g32">
      <g
         transform="translate(135.89071,222.94802)"
         id="g30">
        <path
           style="stroke:none"
           d="m 12.984375,-79.203125 h 18.9375 l -2.375,10.0625 c 1.507813,-3.25 3.472656,-5.882813 5.890625,-7.90625 2.414062,-2.019531 5.25,-3.03125 8.5,-3.03125 5.332031,0 8.898438,1.648437 10.703125,4.9375 1.800781,3.28125 2.019531,7.949219 0.65625,14 L 41.234375,0 h -18.625 L 36.25,-59.1875 c 0.363281,-1.726562 0.34375,-3.207031 -0.0625,-4.4375 -0.398438,-1.226562 -1.3125,-1.84375 -2.75,-1.84375 -1.949219,0 -3.429688,0.886719 -4.4375,2.65625 -1.011719,1.773438 -1.875,4.136719 -2.59375,7.09375 L 13.640625,0 h -18.9375 z m 0,0"
           id="path28" />
      </g>
    </g>
    <g
       style="fill:#ffffff;fill-opacity:1"
       id="g38">
      <g
         transform="translate(189.88212,222.94802)"
         id="g36">
        <path
           style="stroke:none"
           d="m 23.59375,0.859375 c -5.199219,0 -8.195312,-3.097656 -8.984375,-9.296875 L 12.65625,0 H -6.8125 l 21.640625,-93.484375 h 19.46875 l -4.21875,18.0625 c 3.75,-3.101563 7.644531,-4.65625 11.6875,-4.65625 6.132813,0 10.117187,1.824219 11.953125,5.46875 1.84375,3.648437 1.972656,8.898437 0.390625,15.75 l -8.875,38.1875 c -1.449219,6.5 -4.011719,11.714844 -7.6875,15.640625 C 33.867188,-1.101562 29.21875,0.859375 23.59375,0.859375 Z M 20.671875,-13.84375 c 1.289063,0 2.296875,-0.414062 3.015625,-1.25 0.726562,-0.832031 1.289062,-1.878906 1.6875,-3.140625 0.394531,-1.257813 0.914062,-3.222656 1.5625,-5.890625 l 7.578125,-33 c 0.644531,-2.8125 0.878906,-4.90625 0.703125,-6.28125 -0.179688,-1.375 -1.09375,-2.0625 -2.75,-2.0625 -1.8125,0 -3.210938,0.6875 -4.1875,2.0625 -0.96875,1.375 -1.742188,3.398438 -2.3125,6.0625 l -7.6875,33.21875 c -0.792969,3.460938 -1.101562,6.039062 -0.921875,7.734375 0.1875,1.699219 1.289063,2.546875 3.3125,2.546875 z m 0,0"
           id="path34" />
      </g>
    </g>
    <g
       style="fill:#ffffff;fill-opacity:1"
       id="g44">
      <g
         transform="translate(244.08993,222.94802)"
         id="g42">
        <path
           style="stroke:none"
           d="m 12.875,-79.203125 h 18.9375 l -1.953125,8.765625 c 1.664063,-3.101562 3.867187,-5.5 6.609375,-7.1875 2.738281,-1.695312 5.835938,-2.546875 9.296875,-2.546875 L 42.09375,-64.375 c -2.667969,0 -5.699219,0.382812 -9.09375,1.140625 -3.386719,0.75 -5.1875,1.632813 -5.40625,2.640625 L 13.53125,0 h -18.9375 z m 0,0"
           id="path40" />
      </g>
    </g>
    <g
       style="fill:#ffffff;fill-opacity:1"
       id="g50">
      <g
         transform="translate(281.31046,222.94802)"
         id="g48">
        <path
           style="stroke:none"
           d="m 17.640625,0.859375 c -15.804687,0 -21.828125,-8.1875 -18.078125,-24.5625 l 7.359375,-31.8125 c 1.726563,-7.5 5.207031,-13.46875 10.4375,-17.90625 5.238281,-4.4375 11.535156,-6.65625 18.890625,-6.65625 7.351562,0 12.632812,2.21875 15.84375,6.65625 3.21875,4.4375 3.957031,10.40625 2.21875,17.90625 l -7.34375,31.8125 c -3.761719,16.375 -13.539062,24.5625 -29.328125,24.5625 z M 21,-13.734375 c 1.507812,0 2.75,-0.539063 3.71875,-1.625 0.976562,-1.082031 1.679688,-2.5625 2.109375,-4.4375 l 8.875,-38.734375 c 1.082031,-4.625 0.144531,-6.9375 -2.8125,-6.9375 -2.960937,0 -4.980469,2.3125 -6.0625,6.9375 l -8.859375,38.734375 c -0.4375,1.875 -0.421875,3.355469 0.04687,4.4375 0.46875,1.085937 1.460937,1.625 2.984375,1.625 z m 0,0"
           id="path46" />
      </g>
    </g>
  </g>
</svg>
